<?xml version="1.0" encoding="utf-8"?>
<!-- Generator: Adobe Adobe Illustrator 24.2.0, SVG Export Plug-In . SVG Version: 6.00 Build 0)  -->
<svg version="1.1" id="Layer_1" xmlns="http://www.w3.org/2000/svg" xmlns:xlink="http://www.w3.org/1999/xlink" x="0px" y="0px"
	 width="661.45px" height="1247.15px" viewBox="0 0 661.45 1247.15" style="enable-background:new 0 0 661.45 1247.15;"
	 xml:space="preserve">
<style type="text/css">
	.st0{font-family:'SourceSansPro-Regular';}
	.st1{font-size:30px;}
	.st2{font-size:20px;}
	.st3{fill:none;stroke:#000000;stroke-miterlimit:10;}
	.st4{fill:none;}
	.st5{font-size:22px;}
</style>
<text transform="matrix(1 0 0 1 134.4049 48.783)" class="st0 st1">“La evolución de la tecnología”</text>
<text transform="matrix(1 0 0 1 266.638 74.8306)" class="st0 st2">George Basalla</text>
<line class="st3" x1="330.73" y1="209.4" x2="156.13" y2="337.64"/>
<text transform="matrix(1 0 0 1 51.3094 366.22)" class="st0 st2">Conceptos y explicaciones </text>
<line class="st3" x1="156.13" y1="380.12" x2="156.13" y2="445.46"/>
<text transform="matrix(1 0 0 1 49.0213 472.7269)" class="st0 st2">Metáfora (uso consciente)</text>
<line class="st3" x1="156.13" y1="486.88" x2="156.13" y2="539.42"/>
<text transform="matrix(1 0 0 1 79.2622 567.3032)"><tspan x="0" y="0" class="st0 st2">Creencia de que los </tspan><tspan x="-21.49" y="24.86" class="st0 st2">inventos son producidos </tspan><tspan x="6.12" y="49.72" class="st0 st2">por una necesidad</tspan></text>
<line class="st3" x1="156.13" y1="632.46" x2="156.13" y2="684.88"/>
<text transform="matrix(1 0 0 1 79.7207 712.6885)"><tspan x="0" y="0" class="st0 st2">Versatilidad de las </tspan><tspan x="26.24" y="24.86" class="st0 st2">necesidades</tspan></text>
<line class="st3" x1="156.13" y1="755.91" x2="156.13" y2="808.31"/>
<text transform="matrix(1 0 0 1 41.0401 830.8878)" class="st0 st2">Necesidades fundamentales</text>
<line class="st3" x1="330.73" y1="209.4" x2="528.49" y2="337.64"/>
<rect x="436.99" y="345.54" class="st4" width="183" height="48.6"/>
<text transform="matrix(1 0 0 1 445.3752 362.1402)"><tspan x="0" y="0" class="st0 st2">Teorías y conceptos  </tspan><tspan x="28.95" y="24" class="st0 st2">ya existentes</tspan></text>
<line class="st3" x1="528.49" y1="394.14" x2="528.49" y2="445.46"/>
<text transform="matrix(1 0 0 1 496.4539 462.23)"><tspan x="0" y="0" class="st0 st2">- Butler</tspan><tspan x="-15.81" y="24" class="st0 st2">-Pitt-Rivers</tspan><tspan x="-3.92" y="48" class="st0 st2">-Ogburn</tspan><tspan x="-6.96" y="72" class="st0 st2">-Gilifillan</tspan><tspan x="-32.18" y="96" class="st0 st2">-Abott P. Usher</tspan></text>
<rect x="271.82" y="174.44" class="st4" width="117.81" height="27.06"/>
<text transform="matrix(1 0 0 1 277.4983 192.7011)" class="st0 st5">Introducció</text>
<line class="st3" x1="330.73" y1="87.13" x2="330.73" y2="159.03"/>
<line class="st3" x1="156.13" y1="843.1" x2="330.73" y2="885.51"/>
<line class="st3" x1="528.49" y1="573.92" x2="330.73" y2="885.51"/>
<rect x="174.98" y="901.19" class="st4" width="339" height="56"/>
<text transform="matrix(1 0 0 1 214.2301 919.4493)"><tspan x="0" y="0" class="st0 st5">Nueva teoría de la evolución </tspan><tspan x="3.83" y="26.4" class="st0 st5">tecnológica (resto del libro) </tspan></text>
</svg>
